<svg width="22" height="22" viewBox="0 0 22 22" fill="none" xmlns="http://www.w3.org/2000/svg">
<g id="Activity">
<path id="Stroke 1" d="M5.91708 13.8537L8.91008 9.96475L12.3241 12.6447L15.2531 8.86475" stroke="#969FAF" stroke-width="1.5" stroke-linecap="round" stroke-linejoin="round"/>
<path id="Stroke 2" fill-rule="evenodd" clip-rule="evenodd" d="M18.6671 1.34985C19.7291 1.34985 20.5891 2.20985 20.5891 3.27185C20.5891 4.33285 19.7291 5.19385 18.6671 5.19385C17.6051 5.19385 16.7451 4.33285 16.7451 3.27185C16.7451 2.20985 17.6051 1.34985 18.6671 1.34985Z" stroke="#969FAF" stroke-width="1.5" stroke-linecap="round" stroke-linejoin="round"/>
<path id="Stroke 4" d="M19.7555 8.26886C19.8885 9.16386 19.9495 10.1719 19.9495 11.3029C19.9495 18.2409 17.6375 20.5529 10.6995 20.5529C3.76249 20.5529 1.44949 18.2409 1.44949 11.3029C1.44949 4.36586 3.76249 2.05286 10.6995 2.05286C11.8095 2.05286 12.8005 2.11186 13.6825 2.23986" stroke="#969FAF" stroke-width="1.5" stroke-linecap="round" stroke-linejoin="round"/>
</g>
</svg>
