<svg width="102" height="32" viewBox="0 0 102 32" fill="none" xmlns="http://www.w3.org/2000/svg">
<g id="_ Logo">
<g id="Vector">
<path d="M32.0096 21.2897C33.9999 22.769 35.2541 23.3201 36.6719 23.3201C38.1988 23.3201 39.1258 22.6529 39.1258 21.7248C39.1258 20.8256 38.6351 20.4195 37.2445 20.1295L34.1908 19.5494C31.9005 19.0853 30.6463 17.606 30.6463 15.4596C30.6463 12.4721 32.8003 10.6158 36.372 10.6158C38.6078 10.6158 40.789 11.3699 42.2886 12.6171L40.4891 15.3436C39.0986 14.2124 37.708 13.6613 36.1812 13.6613C34.7906 13.6613 33.9727 14.2704 33.9727 15.1116C33.9727 15.8657 34.4362 16.3008 35.6086 16.5038L38.4987 17.0259C41.198 17.519 42.6158 19.0273 42.6158 21.3477C42.6158 24.3352 40.2164 26.3656 36.4538 26.3656C34.1635 26.3656 32.1186 25.5535 30.21 24.0452L32.0096 21.2897Z" fill="#005CFF"/>
<path d="M48.7232 10.8478H52.7585L58.2934 26.1916H54.4762L53.2765 22.5369H48.0143L46.7874 26.1916H43.1065L48.7232 10.8478ZM52.3495 19.6074L50.6863 14.5315L48.9959 19.6074H52.3495Z" fill="#005CFF"/>
<path d="M59.9565 10.8478H66.991C70.0447 10.8478 72.0623 12.9652 72.0623 15.8947C72.0623 18.6792 70.0447 20.8256 66.991 20.8256H63.501V26.1626H59.9565V10.8478ZM63.501 13.9514V17.8381H66.3639C67.8089 17.8381 68.5178 16.9969 68.5178 15.8947C68.5178 14.7925 67.8089 13.9804 66.3911 13.9804H63.501V13.9514Z" fill="#005CFF"/>
<path d="M74.5709 10.8478H81.6054C84.6591 10.8478 86.6768 12.9652 86.6768 15.8947C86.6768 18.6792 84.6591 20.8256 81.6054 20.8256H78.1154V26.1626H74.5709V10.8478ZM78.1154 13.9514V17.8381H80.9783C82.4234 17.8381 83.1323 16.9969 83.1323 15.8947C83.1323 14.7925 82.4234 13.9804 81.0056 13.9804H78.1154V13.9514Z" fill="#005CFF"/>
<path d="M92.5934 20.3615L86.7586 10.8478H90.8212L94.4475 17.113L98.1556 10.8478H102L96.1379 20.3615V26.1916H92.5934V20.3615Z" fill="#005CFF"/>
<path d="M19.0858 18.9693L21.8669 16.0108C23.4755 14.2995 23.4755 11.4859 21.8669 9.74564C20.2582 8.03433 17.6135 8.03433 15.9775 9.74564L8.61587 17.606L12.8693 22.1309L6.4619 28.9761C5.72574 29.7592 4.55332 29.7592 3.81716 28.9761C3.08099 28.1929 3.08099 26.9457 3.81716 26.1626L7.00721 22.769L7.03448 22.798L8.64314 21.0867L3.24458 15.2856L6.24378 12.0951L8.01603 13.9804L9.62469 12.2691L6.24378 8.64344L0 15.2856L5.39855 21.0287L2.18123 24.4513C0.572574 26.1626 0.572574 28.9761 2.18123 30.7164C3.78989 32.4277 6.43464 32.4277 8.07056 30.7164L16.1139 22.1599L11.8605 17.606L17.6135 11.4859C18.3496 10.7028 19.522 10.7028 20.2582 11.4859C20.9944 12.2691 20.9944 13.5163 20.2582 14.2995L17.4499 17.229L15.8412 18.9403L21.267 24.7123L18.2678 27.9029L16.4956 26.0176L14.8869 27.7289L18.2678 31.3255L24.5116 24.6833L19.0858 18.9693Z" fill="#005CFF"/>
<path d="M12.0242 2.11726C12.7603 2.11726 13.4692 2.43631 14.0145 2.98741C14.5326 3.53851 14.8325 4.29265 14.8325 5.10479C14.8325 5.91694 14.5326 6.64207 14.0145 7.22217C13.4965 7.77327 12.7876 8.09233 12.0242 8.09233C11.288 8.09233 10.5791 7.77327 10.0338 7.22217C9.51574 6.67107 9.21582 5.91694 9.21582 5.10479C9.21582 4.32165 9.51574 3.56752 10.0338 2.98741C10.5518 2.43631 11.2607 2.11726 12.0242 2.11726ZM12.0242 -0.00012207C10.7972 -0.00012207 9.57027 0.492966 8.64324 1.47914C6.76193 3.4805 6.76193 6.70008 8.64324 8.67243C9.57027 9.65861 10.7972 10.1517 12.0242 10.1517C13.2511 10.1517 14.478 9.65861 15.4051 8.67243C17.2864 6.67107 17.2864 3.4515 15.4051 1.47914C14.478 0.492966 13.2511 -0.00012207 12.0242 -0.00012207Z" fill="#005CFF"/>
</g>
</g>
</svg>
